<svg id="Layer_1" data-name="Layer 1" xmlns="http://www.w3.org/2000/svg" viewBox="0 0 537 91"><defs><style>.cls-1{fill:none;stroke:#78c14d;stroke-miterlimit:10;stroke-width:10px;}.cls-2{fill:#78c14d;}.cls-3{fill:#989897;}</style></defs><title>logo-light</title><path class="cls-1" d="M5.5,82.47a74.25,74.25,0,0,1,148.5,0"/><polygon class="cls-2" points="74.43 70.29 115.82 40.34 86.55 81.04 74.43 70.29"/><circle class="cls-2" cx="78.66" cy="77.04" r="11.55"/><path class="cls-3" d="M178.67,82.6V39.65h8.43l17.58,28.68V39.65h8.06V82.6H204l-17.32-28v28Z"/><path class="cls-3" d="M221.85,47.26V39.65h8.23v7.61Zm0,35.34V51.48h8.23V82.6Z"/><path class="cls-3" d="M252.79,51.48V58h-5.63V70.58a32.61,32.61,0,0,0,.16,4.44,1.78,1.78,0,0,0,.74,1,2.27,2.27,0,0,0,1.39.41,10.6,10.6,0,0,0,3.31-.79l.7,6.39A16.34,16.34,0,0,1,247,83.3a10.29,10.29,0,0,1-4-.75,5.89,5.89,0,0,1-2.62-1.93,7.65,7.65,0,0,1-1.16-3.21,41,41,0,0,1-.26-5.8V58h-3.78V51.48h3.78V45.3l8.26-4.8v11Z"/><path class="cls-3" d="M266.38,82.6h-8.23V51.48h7.64v4.43a13.19,13.19,0,0,1,3.54-4.13,6.42,6.42,0,0,1,3.55-1,10.46,10.46,0,0,1,5.42,1.55l-2.54,7.18a7.24,7.24,0,0,0-3.87-1.35,4.6,4.6,0,0,0-2.93,1,6.57,6.57,0,0,0-1.89,3.45c-.46,1.66-.69,5.13-.69,10.43Z"/><path class="cls-3" d="M280,66.6a16.82,16.82,0,0,1,2-7.94,13.83,13.83,0,0,1,5.72-5.86,17,17,0,0,1,8.28-2,15.53,15.53,0,0,1,11.57,4.58A15.84,15.84,0,0,1,312.05,67a16,16,0,0,1-4.55,11.71A15.42,15.42,0,0,1,296,83.3a18.2,18.2,0,0,1-8.16-1.93A13.22,13.22,0,0,1,282,75.7,18.89,18.89,0,0,1,280,66.6Zm8.43.44c0,3.09.74,5.45,2.2,7.09a7.19,7.19,0,0,0,10.83,0q2.18-2.46,2.18-7.15t-2.18-7a7.19,7.19,0,0,0-10.83,0C289.12,61.59,288.38,64,288.38,67Z"/><path class="cls-3" d="M318.56,82.6V39.65h13.91q7.92,0,10.32.64A11.29,11.29,0,0,1,349,44.5a13.3,13.3,0,0,1,2.49,8.36A14,14,0,0,1,350,59.51a11.65,11.65,0,0,1-3.64,4.23,12.55,12.55,0,0,1-4.5,2,49.65,49.65,0,0,1-9,.61h-5.65V82.6Zm8.67-35.69V59.1H332c3.41,0,5.7-.22,6.85-.67A5.63,5.63,0,0,0,342.52,53a5.58,5.58,0,0,0-1.37-3.87,6,6,0,0,0-3.49-1.9,40.71,40.71,0,0,0-6.24-.3Z"/><path class="cls-3" d="M364.67,61l-7.47-1.34A11.62,11.62,0,0,1,361.54,53c2-1.45,5.09-2.17,9.14-2.17q5.51,0,8.2,1.3a8.19,8.19,0,0,1,3.79,3.31c.74,1.34,1.1,3.8,1.1,7.37l-.08,9.61a33.79,33.79,0,0,0,.39,6,17.72,17.72,0,0,0,1.48,4.18h-8.14c-.22-.55-.48-1.36-.79-2.44-.14-.48-.24-.81-.3-1a14.82,14.82,0,0,1-4.51,3.07,12.81,12.81,0,0,1-5.13,1,10.6,10.6,0,0,1-7.57-2.61,8.65,8.65,0,0,1-2.77-6.59,8.82,8.82,0,0,1,1.26-4.7,8.29,8.29,0,0,1,3.53-3.17,28,28,0,0,1,6.55-1.92,44.33,44.33,0,0,0,8-2v-.82a4.25,4.25,0,0,0-1.17-3.38c-.79-.67-2.26-1-4.43-1a6,6,0,0,0-3.43.86A6.05,6.05,0,0,0,364.67,61Zm11,6.68a47.61,47.61,0,0,1-5,1.26,15,15,0,0,0-4.48,1.44,3.43,3.43,0,0,0-1.62,2.9,4,4,0,0,0,1.29,3,4.51,4.51,0,0,0,3.28,1.26A7.11,7.11,0,0,0,373.4,76a5.19,5.19,0,0,0,2-2.72,16.54,16.54,0,0,0,.32-4Z"/><path class="cls-3" d="M419,60.68l-8.12,1.47A5.88,5.88,0,0,0,409,58.48a5.6,5.6,0,0,0-3.76-1.23,6.15,6.15,0,0,0-4.91,2.13q-1.83,2.11-1.83,7.1,0,5.53,1.86,7.82a6.08,6.08,0,0,0,5,2.29,5.52,5.52,0,0,0,3.84-1.33,8,8,0,0,0,2.11-4.59l8.09,1.38a14.34,14.34,0,0,1-4.84,8.41Q411,83.29,405,83.3q-6.83,0-10.88-4.31t-4.06-11.92q0-7.71,4.07-12t11-4.29c3.79,0,6.8.81,9,2.45A13.59,13.59,0,0,1,419,60.68Z"/><path class="cls-3" d="M425,82.6V39.65h8.24V62.44l9.64-11H453L442.34,62.85,453.73,82.6h-8.87l-7.82-14-3.84,4v10Z"/><path class="cls-3" d="M458.63,82.6V74.36h8.23V82.6Z"/><path class="cls-3" d="M475.3,47.26V39.65h8.23v7.61Zm0,35.34V51.48h8.23V82.6Z"/><path class="cls-3" d="M490.06,66.6a16.94,16.94,0,0,1,2-7.94,13.91,13.91,0,0,1,5.73-5.86,17,17,0,0,1,8.28-2,15.56,15.56,0,0,1,11.57,4.58A15.84,15.84,0,0,1,522.17,67a16.07,16.07,0,0,1-4.55,11.71,15.42,15.42,0,0,1-11.47,4.64A18.17,18.17,0,0,1,498,81.37a13.29,13.29,0,0,1-5.91-5.67A19,19,0,0,1,490.06,66.6Zm8.44.44q0,4.63,2.2,7.09a7.18,7.18,0,0,0,10.82,0q2.19-2.46,2.19-7.15t-2.19-7a7.18,7.18,0,0,0-10.82,0Q498.5,62.41,498.5,67Z"/><path class="cls-3" d="M178.53,18.64q0-6.42,3.44-10A11.72,11.72,0,0,1,190.87,5a12.3,12.3,0,0,1,6.43,1.71,11.15,11.15,0,0,1,4.37,4.75,15.5,15.5,0,0,1,1.5,6.92,15.27,15.27,0,0,1-1.58,7A10.79,10.79,0,0,1,197.11,30a12.83,12.83,0,0,1-6.26,1.59,12.18,12.18,0,0,1-6.5-1.76,11.34,11.34,0,0,1-4.35-4.8A14.56,14.56,0,0,1,178.53,18.64Zm3.51.05A10.31,10.31,0,0,0,184.55,26a8.75,8.75,0,0,0,12.62,0q2.49-2.72,2.49-7.69a13.21,13.21,0,0,0-1.07-5.49,8.17,8.17,0,0,0-3.11-3.64,8.44,8.44,0,0,0-4.6-1.29,8.72,8.72,0,0,0-6.23,2.49C182.91,12.05,182,14.81,182,18.69Z"/><path class="cls-3" d="M207.57,31.19V5.42h9.72a22.83,22.83,0,0,1,3.92.25,7.82,7.82,0,0,1,3.18,1.2,6.31,6.31,0,0,1,2.06,2.49,7.81,7.81,0,0,1,.79,3.52,7.9,7.9,0,0,1-2.1,5.56c-1.39,1.52-3.91,2.27-7.55,2.27H211V31.19ZM211,17.67h6.66c2.2,0,3.77-.41,4.69-1.23A4.36,4.36,0,0,0,223.72,13a4.63,4.63,0,0,0-.82-2.77,3.81,3.81,0,0,0-2.15-1.52,14.63,14.63,0,0,0-3.18-.23H211Z"/><path class="cls-3" d="M238.13,31.19V8.46h-8.49v-3h20.43v3h-8.53V31.19Z"/><path class="cls-3" d="M254.15,31.19V5.42h3.41V31.19Z"/><path class="cls-3" d="M263.46,31.19V5.42h5.14l6.1,18.25q.84,2.55,1.23,3.81c.29-.94.75-2.31,1.37-4.13l6.17-17.93h4.59V31.19h-3.29V9.62l-7.49,21.57h-3.07L266.75,9.25V31.19Z"/><path class="cls-3" d="M294.14,31.19V5.42h3.41V31.19Z"/><path class="cls-3" d="M301.5,31.19V28l13.21-16.51a40.06,40.06,0,0,1,2.67-3.06H303v-3h18.46v3L307,26.34l-1.57,1.81h16.46v3Z"/><path class="cls-3" d="M325.62,31.19V5.42h18.63v3H329v7.9h14.26v3H329v8.77h15.82v3Z"/><path class="cls-3" d="M349.56,31.19V5.42h8.88a21.35,21.35,0,0,1,4.59.37,8.82,8.82,0,0,1,3.78,1.85,10.52,10.52,0,0,1,3.05,4.4,17.39,17.39,0,0,1,1,6.13,17.89,17.89,0,0,1-.69,5.2,12.57,12.57,0,0,1-1.76,3.75,9.27,9.27,0,0,1-2.34,2.34A9.5,9.5,0,0,1,363,30.75a17.7,17.7,0,0,1-4.14.44Zm3.41-3h5.5a13.56,13.56,0,0,0,4-.47,5.87,5.87,0,0,0,2.32-1.34,8.25,8.25,0,0,0,1.88-3.26,15.71,15.71,0,0,0,.68-5A11.94,11.94,0,0,0,366,11.9,6.65,6.65,0,0,0,362.8,9a13.4,13.4,0,0,0-4.41-.53H353Z"/><path class="cls-3" d="M385.42,31.19V5.42h9.67a12,12,0,0,1,4.74.78,6.13,6.13,0,0,1,2.79,2.41,6.31,6.31,0,0,1,1,3.4,5.93,5.93,0,0,1-.89,3.12A6.43,6.43,0,0,1,400,17.48a6.71,6.71,0,0,1,3.59,2.34,6.24,6.24,0,0,1,1.26,3.9,7.54,7.54,0,0,1-.76,3.37,6.65,6.65,0,0,1-1.89,2.4,8,8,0,0,1-2.82,1.27,17.1,17.1,0,0,1-4.16.43Zm3.41-14.94h5.57a12.43,12.43,0,0,0,3.26-.3,3.64,3.64,0,0,0,2-1.28,3.7,3.7,0,0,0,.66-2.25,4.14,4.14,0,0,0-.62-2.26,3.13,3.13,0,0,0-1.76-1.34A14.69,14.69,0,0,0,394,8.46h-5.15Zm0,11.9h6.42a15.19,15.19,0,0,0,2.32-.12,5.58,5.58,0,0,0,2-.71,3.7,3.7,0,0,0,1.3-1.43,4.49,4.49,0,0,0,.51-2.17,4.27,4.27,0,0,0-.74-2.5,3.92,3.92,0,0,0-2.05-1.5,12.59,12.59,0,0,0-3.77-.43h-6Z"/><path class="cls-3" d="M416.83,31.19V20.28L406.9,5.42h4.15l5.08,7.77c.94,1.45,1.81,2.91,2.62,4.36.77-1.35,1.71-2.86,2.81-4.55l5-7.58h4L420.24,20.28V31.19Z"/></svg>